<svg xmlns="http://www.w3.org/2000/svg" viewBox="0 0 512 512"><defs><style>.cls-1{fill:#f1cbbc;}.cls-2{fill:#f2ded7;}.cls-3{fill:#bd8278;}.cls-4{fill:#a13672;}.cls-5{fill:#2d376e;}.cls-6{fill:#313c81;}.cls-7{fill:#bcd3de;}.cls-8{fill:#cce4f3;}.cls-9{fill:#293262;}.cls-10{fill:#98336c;}.cls-11{fill:#af3874;}.cls-12{fill:#d5d4d6;}.cls-13{fill:#fff;}.cls-14{fill:#5a2a56;}.cls-15{fill:#80144b;}.cls-16{fill:#98114e;}.cls-17{fill:#7b3371;}.cls-18{fill:#923880;}.cls-19{fill:#41497f;}.cls-20{fill:#5560b0;}.cls-21{fill:#5c66c5;}.cls-22{fill:#9e3471;}</style></defs><title>Beauty</title><g id="BULINE"><path class="cls-1" d="M512,256A256,256,0,1,1,0,256C0,114.62,114.62,0,256,0S512,114.62,512,256Z"/></g><g id="Icons"><circle class="cls-2" cx="247.88" cy="146" r="46.17"/><circle class="cls-2" cx="442.17" cy="272.55" r="46.17"/><circle class="cls-2" cx="62.17" cy="282.17" r="46.17"/><circle class="cls-2" cx="103.04" cy="110.59" r="29.11"/><circle class="cls-2" cx="430.11" cy="159.27" r="25.89"/><path class="cls-3" d="M479.19,381.47a256.08,256.08,0,0,1-446.38,0Z"/><ellipse class="cls-4" cx="312.93" cy="460.14" rx="74.61" ry="17.72"/><path class="cls-5" d="M188.53,142.42V254.74H113.2V142.42A26.83,26.83,0,0,1,140,115.59H161.7A26.83,26.83,0,0,1,188.53,142.42Z"/><path class="cls-6" d="M188.53,142.42V254.74H124.8V142.42a26.83,26.83,0,0,1,26.83-26.83H161.7A26.83,26.83,0,0,1,188.53,142.42Z"/><path class="cls-7" d="M233.38,290.35V393.42a29.19,29.19,0,0,1-29.17,29.2H97.53a29.2,29.2,0,0,1-29.17-29.2V290.35Z"/><path class="cls-7" d="M233.38,290.36h-165l5.38-15.57a29.82,29.82,0,0,1,28.15-20.05h98A29.82,29.82,0,0,1,228,274.79Z"/><path class="cls-8" d="M233.38,290.35V393.42a29.19,29.19,0,0,1-29.17,29.2H116.62a29.21,29.21,0,0,1-29.17-29.2V290.35Z"/><path class="cls-8" d="M233.38,290.36H87.45l5.38-15.57A29.81,29.81,0,0,1,121,254.74h78.87A29.82,29.82,0,0,1,228,274.79Z"/><rect class="cls-9" x="141.05" y="254.74" width="19.37" height="105.19"/><path class="cls-10" d="M223.84,297.29v90.48c0,15.23-13.07,27.58-29.19,27.58H107.08C91,415.35,77.9,403,77.9,387.78V297.29a7.14,7.14,0,0,1,7.34-6.93H216.5A7.14,7.14,0,0,1,223.84,297.29Z"/><path class="cls-11" d="M223.84,297.29v90.48c0,15.23-13.07,27.58-29.19,27.58H119.74c-16.11,0-29.17-12.34-29.17-27.57V297.29a7.14,7.14,0,0,1,7.34-6.93H216.5A7.14,7.14,0,0,1,223.84,297.29Z"/><path class="cls-12" d="M201.71,334.52v34.25a9.91,9.91,0,0,1-9.91,9.91H113a9.92,9.92,0,0,1-9.92-9.91V334.52A9.92,9.92,0,0,1,113,324.6H191.8A9.92,9.92,0,0,1,201.71,334.52Z"/><path class="cls-13" d="M201.71,334.52v34.25a9.91,9.91,0,0,1-9.91,9.91H129a9.92,9.92,0,0,1-9.92-9.91V334.52A9.92,9.92,0,0,1,129,324.6H191.8A9.92,9.92,0,0,1,201.71,334.52Z"/><path class="cls-7" d="M436.57,238.07,419,386.41a41,41,0,0,1-40.75,36.21h-65.8a41,41,0,0,1-40.77-36.4L254.87,238a24.13,24.13,0,0,1,24-26.85H412.6A24.13,24.13,0,0,1,436.57,238.07Z"/><path class="cls-8" d="M436.57,238.07,419,386.41a41,41,0,0,1-40.75,36.21H333.14a41,41,0,0,1-40.77-36.4L275.53,238a24.14,24.14,0,0,1,24-26.85H412.6A24.13,24.13,0,0,1,436.57,238.07Z"/><rect class="cls-14" x="336.05" y="209.68" width="19.37" height="105.19"/><path class="cls-15" d="M415.57,272.17,402.3,384.35a31,31,0,0,1-30.81,27.38H321.73A31,31,0,0,1,290.9,384.2L278.17,272.09a18.25,18.25,0,0,1,18.13-20.31H397.45A18.25,18.25,0,0,1,415.57,272.17Z"/><path class="cls-16" d="M415.57,272.17,402.3,384.35a31,31,0,0,1-30.81,27.38H337.36a31,31,0,0,1-30.83-27.53L293.79,272.09a18.27,18.27,0,0,1,18.14-20.31h85.52A18.25,18.25,0,0,1,415.57,272.17Z"/><path class="cls-17" d="M389.36,91.23V211.11H302.08V91.23a42.12,42.12,0,0,1,42.13-42.12h3a43,43,0,0,1,5.82.4A42.12,42.12,0,0,1,389.36,91.23Z"/><path class="cls-18" d="M389.36,91.23V211.11H316.75V91.23a42.12,42.12,0,0,1,36.31-41.72A42.12,42.12,0,0,1,389.36,91.23Z"/><path class="cls-12" d="M387.54,309.73v35.83a9.13,9.13,0,0,1-9.13,9.13H313a9.12,9.12,0,0,1-9.12-9.13V309.73a9.12,9.12,0,0,1,9.12-9.12h65.38A9.12,9.12,0,0,1,387.54,309.73Z"/><path class="cls-13" d="M387.54,309.73v35.83a9.13,9.13,0,0,1-9.13,9.13H329a9.12,9.12,0,0,1-9.12-9.13V309.73a9.12,9.12,0,0,1,9.12-9.12h49.38A9.12,9.12,0,0,1,387.54,309.73Z"/><path class="cls-19" d="M171.24,386.32h24.82a0,0,0,0,1,0,0v35.35a6.77,6.77,0,0,1-6.77,6.77H178a6.77,6.77,0,0,1-6.77-6.77V386.32A0,0,0,0,1,171.24,386.32Z" transform="translate(-256.78 482.92) rotate(-75.46)"/><rect class="cls-19" x="243.28" y="362.41" width="15.47" height="124.87" transform="translate(-223.23 561.2) rotate(-75.46)"/><path class="cls-20" d="M125.25,353.77l56.13,14.56a10.67,10.67,0,0,1,7.66,13l-13.32,51.4a10.68,10.68,0,0,1-13,7.66l-56.13-14.55a33.24,33.24,0,0,1-23.84-40.53l2-7.71a32.46,32.46,0,0,1,1.11-3.5A33.27,33.27,0,0,1,125.25,353.77Z"/><path class="cls-21" d="M125.25,353.77l56.13,14.56a10.67,10.67,0,0,1,7.66,13l-9.48,36.59a10.69,10.69,0,0,1-13,7.66L110.4,411.05a33.26,33.26,0,0,1-24.57-36.93A33.27,33.27,0,0,1,125.25,353.77Z"/><path class="cls-22" d="M335.84,429.2l16.24,17.56,3.57,3.86-.38,1.44-27.72,9.1c-14.34,4.7-29.09-7.47-26.3-22.3.1-.5.2-1,.33-1.49s.28-1,.44-1.46c.22-.66.48-1.32.75-1.93C308.52,421.3,326.06,418.65,335.84,429.2Z"/><path class="cls-11" d="M335.84,429.2l16.24,17.56-22.73,7.45c-13.67,4.49-27.71-6.35-26.58-20.23C308.52,421.3,326.06,418.65,335.84,429.2Z"/><ellipse class="cls-4" cx="233.38" cy="458.85" rx="17" ry="6.33"/><ellipse class="cls-4" cx="266.38" cy="477.86" rx="18.5" ry="9.37"/><ellipse class="cls-4" cx="338.41" cy="479.25" rx="21.25" ry="10.77"/></g></svg>